<svg width="21" height="21" xmlns="http://www.w3.org/2000/svg" xmlns:svg="http://www.w3.org/2000/svg" xmlns:xlink="http://www.w3.org/1999/xlink" class="facility-glm-stations-icon">
 <title>circle-15.svg</title>
 <defs>
  <symbol id="svg_5" viewBox="0 0 360 360" xmlns="http://www.w3.org/2000/svg" xmlns:xlink="http://www.w3.org/1999/xlink">
   <g id="svg_4">
    <path d="m181.7,45.5l-136.2,136.2c0.1,7.4 0.8,14.7 2,21.9l156,-156c-7.1,-1.4 -14.4,-2 -21.8,-2.1z" id="svg_8"/>
    <path d="m232,55.9l-176.1,176.1c2.2,5.3 4.8,10.5 7.7,15.4l183.8,-183.9c-5,-2.8 -10.1,-5.4 -15.4,-7.6z" id="svg_9"/>
    <path d="m312.7,157.7l-155,155c7.3,1.2 14.7,1.9 22.3,1.9c0.2,0 0.4,0 0.6,0l133.9,-133.9c0,-0.2 0,-0.4 0,-0.6c0.1,-7.7 -0.6,-15.2 -1.8,-22.4z" id="svg_10"/>
    <path d="m268.8,78.9l-189.9,189.9c4,4.6 8.3,8.9 12.9,12.9l189.8,-189.9c-4,-4.6 -8.3,-8.9 -12.8,-12.9z" id="svg_11"/>
    <path d="m308.7,219.2l-89.5,89.5c42.8,-13 76.5,-46.7 89.5,-89.5z" id="svg_12"/>
    <path d="m296.9,113.3l-183.6,183.6c5,2.9 10.3,5.4 15.7,7.7l175.6,-175.6c-2.3,-5.4 -4.8,-10.6 -7.7,-15.7z" id="svg_13"/>
    <path d="m50.3,144.1l93.8,-93.8c-45.5,12.6 -81.2,48.3 -93.8,93.8z" id="svg_14"/>
   </g>
  </symbol>
 </defs>
 <g class="layer">
  <title>Layer 1</title>
  <rect fill="none" height="21" id="svg_1" width="21" x="0" y="0"/>
  <path d="m14,7.5c0,3.5899 -2.9101,6.5 -6.5,6.5s-6.5,-2.9101 -6.5,-6.5s2.9101,-6.5 6.5,-6.5s6.5,2.9101 6.5,6.5z" fill="#ffffff" id="svg_2" stroke="#ffffff" stroke-linejoin="round" stroke-miterlimit="4" stroke-width="2" transform="translate(3 3)"/>
  <path d="m14,7.5c0,3.5899 -2.9101,6.5 -6.5,6.5s-6.5,-2.9101 -6.5,-6.5s2.9101,-6.5 6.5,-6.5s6.5,2.9101 6.5,6.5z" fill="#068a47" id="svg_3" transform="translate(3 3)"/>
  <use id="svg_6" transform="rotate(139.777 0.204172 0.204223) matrix(0.0194444 0 0 0.0194444 0 0)" xlink:href="#svg_5"/>
  <g id="svg_7"/>
 </g>
 <g class="layer">
  <title>Layer 2</title>
  <g id="svg_15">
   <path d="m10.586714,4l-6.586714,6.579713c0.004836,0.357488 0.038688,0.710145 0.096721,1.057972l7.544254,-7.536235c-0.34336,-0.067633 -0.696393,-0.096618 -1.054261,-0.101449l-0.000001,-0.000001l0.000001,0z" fill="#dddddd" id="svg_16"/>
   <path d="m13.019253,4.502416l-8.516302,8.50725c0.106394,0.256039 0.232131,0.507247 0.372376,0.743962l8.888678,-8.884062c-0.241803,-0.135266 -0.488442,-0.26087 -0.744754,-0.36715l0.000001,0l0.000001,0z" fill="#dddddd" id="svg_17"/>
   <path d="m16.921953,9.420292l-7.495894,7.487926c0.353033,0.057971 0.7109,0.091787 1.078442,0.091787c0.009672,0 0.019345,0 0.029016,0l6.475485,-6.468602c0,-0.009662 0,-0.019324 0,-0.028986c0.004836,-0.371981 -0.029016,-0.7343 -0.087049,-1.082126l0,0.000001z" fill="#dddddd" id="svg_18"/>
   <path d="m14.798922,5.613527l-9.183678,9.173917c0.193442,0.222222 0.401393,0.429952 0.623851,0.623189l9.178842,-9.173917c-0.193442,-0.222222 -0.401393,-0.429952 -0.619016,-0.623189l0.000001,0z" fill="#dddddd" id="svg_19"/>
   <path d="m16.72851,12.391308l-4.328274,4.323674c2.069834,-0.62802 3.699587,-2.25604 4.328274,-4.323674z" fill="#dddddd" id="svg_20"/>
   <path d="m16.157856,7.275364l-8.879006,8.869569c0.241803,0.140097 0.498114,0.26087 0.759261,0.371981l8.492121,-8.483096c-0.111229,-0.26087 -0.232131,-0.512078 -0.372376,-0.758454z" fill="#dddddd" id="svg_21"/>
   <path d="m4.232131,8.763287l4.536224,-4.531403c-2.200408,0.608696 -3.926881,2.333334 -4.536224,4.531403z" fill="#dddddd" id="svg_22"/>
  </g>
 </g>
</svg>
