<?xml version="1.0" encoding="utf-8"?>
<!-- Generator: Adobe Illustrator 26.5.0, SVG Export Plug-In . SVG Version: 6.00 Build 0)  -->
<svg version="1.1" id="Layer_1" xmlns="http://www.w3.org/2000/svg" xmlns:xlink="http://www.w3.org/1999/xlink" x="0px" y="0px"
	 viewBox="0 0 360 360" style="enable-background:new 0 0 360 360;" xml:space="preserve">
<style type="text/css">
	.st0{fill:#3460E8;}
    .st1{fill:#ffffff;}
</style>
<g>
    <path class="st1" d="M180,22.7c-69.6,0-126,56.4-126,126s126,194.7,126,194.7s126-125.1,126-194.7S249.6,22.7,180,22.7z M180"/>
	<path class="st0" d="M180,22.7c-69.6,0-126,56.4-126,126s126,194.7,126,194.7s126-125.1,126-194.7S249.6,22.7,180,22.7z M180,229.7
		c-49.7,0-90-40.3-90-90s40.3-90,90-90s90,40.3,90,90S229.7,229.7,180,229.7z"/>
	<path class="st0" d="M226.7,98.8l-10.3-8c-2.1-1.6-5-1.2-6.6,0.9l-50.9,67.1L132.7,139c-1-0.8-2.3-1.1-3.5-0.9
		c-1.2,0.2-2.4,0.8-3.1,1.8l-6.9,9.1c-1.6,2.1-1.1,5.1,0.9,6.7l39.3,32.7c2.8,1.9,5.7,0.8,6.6-0.9l61.5-82.9
		C228.5,103.1,228.7,100.1,226.7,98.8z"/>
</g>
</svg>
