<?xml version="1.0" encoding="utf-8"?>
<!-- Generator: Adobe Illustrator 26.2.1, SVG Export Plug-In . SVG Version: 6.00 Build 0)  -->
<svg version="1.1" id="Layer_1" xmlns="http://www.w3.org/2000/svg" xmlns:xlink="http://www.w3.org/1999/xlink" x="0px" y="0px"
	 viewBox="0 0 360 360" style="enable-background:new 0 0 360 360;" xml:space="preserve">
<style type="text/css">
	.st0{fill:#3c16ff;}
    .st1{fill:#ffffff;}
</style>
<g>
    <path class="st1" d="M180,22.65c-69.56,0-126,56.44-126,126s126,194.71,126,194.71s126-125.14,126-194.71S249.56,22.65,180,22.65z
		 M180"/>
	<path class="st0" d="M180,22.65c-69.56,0-126,56.44-126,126s126,194.71,126,194.71s126-125.14,126-194.71S249.56,22.65,180,22.65z
		 M180,229.69c-49.7,0-90-40.29-90-90c0-49.7,40.29-90,90-90s90,40.29,90,90C270,189.39,229.7,229.69,180,229.69z"/>
	<path class="st0" d="M209.22,117.59c-1.1-1.57-2.29-3.14-3.64-4.72c-0.38-0.45-0.8-0.89-1.19-1.34c-1.09-1.22-2.26-2.45-3.51-3.67
		c-0.37-0.37-0.66-0.73-1.05-1.1c-20.79-19.6-69.25-25.72-69.25-25.72s-6.36,15.96-4.59,33.92c0.79,8.16,3.26,16.73,8.76,24.41
		c1.52,2.12,3.13,4.02,4.8,5.81c15.01,19.57,37.28,23.62,51.61,30.89c2.33,1.18,4.08,2.74,5.46,4.44c0.03,0.08,0.06,0.16,0.1,0.23
		c1.87,4.45,2.02,8.91,2.08,10.64c0.11,3.06-2.4,13.37-2.4,13.37l0.02,0.03c0,0-0.01,0.03-0.01,0.03s0.03,0.03,0.06,0.06l2.28,4.37
		c0,0,7.12,8.2,7.88,2.4c0.75-5.78,1.06-21.27-0.44-26.28c-1.5-5.03-0.76-15.46-11.74-35.13c-3.81-6.82-7.59-11.15-11.67-16.37
		c-6.79-9.15-21.5-21.7-32.08-30.15c-6.21-5.1-10.3-7.95-10.3-7.95c14.07,4.35,22.26,6.54,45.34,28
		c19.97,18.57,23.13,51.65,23.13,51.65l0.01,0.01c0,0.01,0,0.05,0,0.05s0.01-0.02,0.02-0.02l2.69,4.61c0,0,23.87-30.08-1.98-62.03
		C209.46,117.89,209.32,117.74,209.22,117.59z"/>
</g>
</svg>
