<?xml version="1.0" encoding="utf-8"?>
<!-- Generator: Adobe Illustrator 26.2.1, SVG Export Plug-In . SVG Version: 6.00 Build 0)  -->
<svg version="1.1" id="Layer_1" xmlns="http://www.w3.org/2000/svg" xmlns:xlink="http://www.w3.org/1999/xlink" x="0px" y="0px"
	 viewBox="0 0 360 360" style="enable-background:new 0 0 360 360;" xml:space="preserve">
<style type="text/css">
	.st0{fill:#3c16ff;}
    .st1{fill:#ffffff;}
</style>
<g>
    <path class="st1" d="M180,22.65c-69.56,0-126,56.44-126,126s126,194.71,126,194.71s126-125.14,126-194.71S249.56,22.65,180,22.65z
		 M180"/>
	<path class="st0" d="M180,22.65c-69.56,0-126,56.44-126,126s126,194.71,126,194.71s126-125.14,126-194.71S249.56,22.65,180,22.65z
		 M180,229.69c-49.7,0-90-40.29-90-90c0-49.7,40.29-90,90-90s90,40.29,90,90C270,189.39,229.7,229.69,180,229.69z"/>
	<path class="st0" d="M234.27,170.27c-4.02-2.98-8.78-4.75-12.49-5.97c-12.86-4.13-25.53-3.05-37.04,3.08
		c-2.78,1.5-5.5,3.2-8.14,4.85c-6.98,4.36-13.57,8.48-20.73,8.48c-0.02,0-0.04,0-0.06,0c-3.69-0.02-7.07-1.32-11.29-4.34
		c-1.74-1.26-3.53-2.73-5.11-4.02c-2.15-1.76-4.6-3.76-7.23-5.54l-7.18-4.82c-0.54-0.36-1.24-0.34-1.75,0.06
		c-0.51,0.4-0.71,1.07-0.5,1.68l2.92,8.3c5.31,14.88,20.4,21.57,32.99,21.6c9.39,0,16.95-4.04,23.9-8.2l2.66-1.62
		c5.71-3.47,11.1-6.75,16.96-8.09c1.66-0.39,3.35-0.58,5.01-0.58c4.85,0,10.01,1.63,14.93,4.71c1.28,0.78,2.68,1.92,4.02,3.04
		c3.01,2.46,6.43,5.25,10.65,6.38l3.58,0.91c0.45,0.12,0.93,0.01,1.3-0.28c0.37-0.29,0.58-0.73,0.57-1.2l-0.04-3.77
		C242.17,177.57,237.86,172.89,234.27,170.27z"/>
	<path class="st0" d="M234.86,94.27c-3.98-2.94-8.55-4.66-12.5-5.95c-5.06-1.65-10.18-2.48-15.23-2.48c-7.54,0-14.87,1.86-21.8,5.53
		c-2.75,1.47-5.43,3.14-8.02,4.76l-0.16,0.1c-6.96,4.36-13.54,8.48-20.68,8.48c-0.03,0-0.05,0-0.08,0
		c-3.68-0.01-7.05-1.32-11.29-4.38c-1.67-1.18-3.31-2.51-5.04-3.92l-0.18-0.15c-2.34-1.93-4.65-3.8-7.12-5.46l-7.19-4.81
		c-0.54-0.36-1.24-0.33-1.75,0.06c-0.51,0.4-0.71,1.07-0.5,1.68l2.9,8.26c0,0,0,0,0,0.01c5.32,14.89,20.41,21.59,33.01,21.62
		c9.41,0,16.94-4.06,23.86-8.21l2.82-1.69c5.65-3.43,10.98-6.67,16.83-8.03c1.68-0.38,3.32-0.57,5-0.57c4.86,0,10.02,1.62,14.94,4.7
		c1.23,0.75,2.55,1.82,4.02,3.03c3.01,2.46,6.41,5.26,10.66,6.39l3.58,0.91c0.45,0.11,0.93,0.01,1.3-0.28
		c0.37-0.29,0.58-0.73,0.57-1.2l-0.04-3.77C242.76,103.13,240.02,98.05,234.86,94.27z"/>
	<path class="st0" d="M150.47,155.63C150.47,155.63,150.47,155.63,150.47,155.63c9.42,0,16.96-4.05,23.88-8.2l2.77-1.68
		c5.68-3.44,11.05-6.7,16.86-8.05c1.68-0.38,3.36-0.57,5-0.57c4.93,0,9.96,1.58,14.96,4.7c1.24,0.76,2.55,1.82,4.02,3.03
		c3.01,2.46,6.41,5.26,10.65,6.38l3.58,0.91c0.45,0.11,0.93,0.01,1.29-0.28c0.36-0.29,0.58-0.73,0.57-1.19l-0.03-3.76
		c-0.03-7.38-4.34-12.05-7.93-14.66c-4.06-3.03-8.82-4.77-12.5-5.95c-5.07-1.65-10.2-2.49-15.23-2.49c-7.56,0-14.9,1.87-21.81,5.55
		c-2.52,1.35-5,2.89-7.4,4.38l-0.78,0.49c-6.95,4.35-13.51,8.46-20.66,8.46c-0.02,0-0.04,0-0.06,0c-3.68-0.01-7.06-1.31-11.29-4.34
		c-1.7-1.22-3.36-2.57-5.12-4.01l-0.34-0.28c-2.18-1.78-4.44-3.62-6.89-5.28l-7.17-4.81c-0.54-0.36-1.24-0.34-1.75,0.06
		c-0.51,0.39-0.71,1.07-0.5,1.68l2.89,8.31C122.84,148.94,137.91,155.62,150.47,155.63z"/>
</g>
</svg>
