<?xml version="1.0" encoding="utf-8"?>
<!-- Generator: Adobe Illustrator 26.5.0, SVG Export Plug-In . SVG Version: 6.00 Build 0)  -->
<svg version="1.1" id="Layer_1" xmlns="http://www.w3.org/2000/svg" xmlns:xlink="http://www.w3.org/1999/xlink" x="0px" y="0px"
	 viewBox="0 0 360 360" style="enable-background:new 0 0 360 360;" xml:space="preserve">
<style type="text/css">
	.st0{fill:#696F73;}
    .st1{fill:#FFFFFF;}
</style>
<path class="st1" d="M180,22.7c-69.6,0-126,56.4-126,126s126,194.7,126,194.7s126-125.1,126-194.7S249.6,22.7,180,22.7z M180"/>
<path class="st0" d="M180,22.7c-69.6,0-126,56.4-126,126s126,194.7,126,194.7s126-125.1,126-194.7S249.6,22.7,180,22.7z M270,139.7
	c0,18.8-5.8,36.3-15.7,50.7l-125-125.1c14.4-9.9,31.9-15.7,50.7-15.7C229.7,49.7,270,90,270,139.7z M180,229.7
	c-49.7,0-90-40.3-90-90c0-19.7,6.3-37.9,17.1-52.7l125.7,125.7C217.9,223.4,199.7,229.7,180,229.7z"/>
</svg>
