<svg width="21" height="21" xmlns="http://www.w3.org/2000/svg" xmlns:svg="http://www.w3.org/2000/svg" class="air-monitoring-icon">
 <title>square-15.svg</title>
 <g class="layer">
  <title>Layer 1</title>
  <rect fill="none" height="21" id="svg_1" width="21" x="0" y="0"/>
  <path d="m13,14l-11,0c-0.5523,0 -1,-0.4477 -1,-1l0,-11c0,-0.5523 0.4477,-1 1,-1l11,0c0.5523,0 1,0.4477 1,1l0,11c0,0.5523 -0.4477,1 -1,1z" fill="#ffffff" id="svg_2" stroke="#ffffff" stroke-linejoin="round" stroke-miterlimit="4" stroke-width="2" transform="translate(3 3)"/>
  <path d="m13,14l-11,0c-0.5523,0 -1,-0.4477 -1,-1l0,-11c0,-0.5523 0.4477,-1 1,-1l11,0c0.5523,0 1,0.4477 1,1l0,11c0,0.5523 -0.4477,1 -1,1z" fill="#10649f" id="svg_3" transform="translate(3 3)"/>
 </g>
 <g class="layer">
  <title>Layer 2</title>
  <g id="svg_4">
   <polygon fill="#dddddd" id="svg_5" points="7.19818271324084,3.999999183462478 3.9999992130337887,7.198182683669529 3.9999992130337887,8.367887894069554 8.367887923640865,3.999999183462478 "/>
   <polygon fill="#dddddd" id="svg_6" points="10.223624004969224,3.999999183462478 3.9999992130337887,10.223625897532202 3.9999992130337887,11.432813668345716 11.432813697917027,3.999999183462478 "/>
   <polygon fill="#dddddd" id="svg_7" points="7.66705181335783,17.000024795532227 17.00002098083496,7.667052264320091 17.00002098083496,6.4825394118975055 6.482539922002388,17.000024795532227 "/>
   <polygon fill="#dddddd" id="svg_8" points="16.31892615075867,3.999999183462478 3.9999992130337887,16.31892612118736 3.9999992130337887,17.000024795532227 4.626803360140457,17.000024795532227 17.00002098083496,4.62680429163629 17.00002098083496,3.999999183462478 "/>
   <polygon fill="#dddddd" id="svg_9" points="13.29348582009743,3.999999183462478 3.9999992130337887,13.293484829458976 3.9999992130337887,14.458256882208389 14.458255950712555,3.999999183462478 "/>
   <polygon fill="#dddddd" id="svg_10" points="17.00002098083496,17.000024795532227 17.00002098083496,15.662510534304147 15.66250864174117,17.000024795532227 "/>
   <polygon fill="#dddddd" id="svg_11" points="3.9999992130337887,3.999999183462478 3.9999992130337887,5.3375115225562695 5.33751155212758,3.999999183462478 "/>
   <polygon fill="#dddddd" id="svg_12" points="13.806773521479954,17.000024795532227 17.00002098083496,13.806775414042932 17.00002098083496,12.637067320441474 12.637067350012785,17.000024795532227 "/>
   <polygon fill="#dddddd" id="svg_13" points="10.776396188899525,17.000024795532227 17.00002098083496,10.776397120395359 17.00002098083496,9.522788826182023 9.522786933619045,17.000024795532227 "/>
  </g>
 </g>
</svg>
