<svg width="21" height="21" xmlns="http://www.w3.org/2000/svg" xmlns:svg="http://www.w3.org/2000/svg" class="meteorological-sites-icon">
 <title>triangle-15.svg</title>
 <g class="layer">
  <title>Layer 1</title>
  <rect fill="none" height="21" id="svg_1" width="21" x="0" y="0"/>
  <path d="m7.5385,2c-0.2948,0 -0.4883,0.1772 -0.6154,0.3846l-5.8462,9.5385c-0.0769,0.0769 -0.0769,0.2307 -0.0769,0.3846c0,0.5385 0.3846,0.6923 0.6923,0.6923l11.6154,0c0.3846,0 0.6923,-0.1538 0.6923,-0.6923c0,-0.1538 0,-0.2308 -0.0769,-0.3846l-5.7693,-9.5385c-0.1258,-0.2081 -0.3656,-0.3846 -0.6153,-0.3846z" fill="#ffffff" id="svg_2" stroke="#ffffff" stroke-linejoin="round" stroke-miterlimit="4" stroke-width="2" transform="translate(3 3)"/>
  <path d="m7.5385,2c-0.2948,0 -0.4883,0.1772 -0.6154,0.3846l-5.8462,9.5385c-0.0769,0.0769 -0.0769,0.2307 -0.0769,0.3846c0,0.5385 0.3846,0.6923 0.6923,0.6923l11.6154,0c0.3846,0 0.6923,-0.1538 0.6923,-0.6923c0,-0.1538 0,-0.2308 -0.0769,-0.3846l-5.7693,-9.5385c-0.1258,-0.2081 -0.3656,-0.3846 -0.6153,-0.3846z" fill="#d28f60" id="svg_3" transform="translate(3 3)"/>
 </g>
 <g class="layer">
  <title>Layer 2</title>
  <g id="svg_4">
   <polygon fill="#dddddd" id="svg_5" points="11.652202203834122,6.303565979003906 6.158950522252098,11.507827758789062 4.64404591463483,13.996442794799805 12.057404689469877,6.967196941375732 "/>
   <polygon fill="#dddddd" id="svg_6" points="12.702044706383731,8.028133392333984 4.400003433227539,15.900014877319336 5.63863232820745,15.900014877319336 13.15329385396285,8.770352363586426 "/>
   <polygon fill="#dddddd" id="svg_7" points="13.80253740133162,9.831286430358887 7.397579417232009,15.900014877319336 8.521094496702062,15.900014877319336 14.212341524523254,10.503649711608887 "/>
   <polygon fill="#dddddd" id="svg_8" points="14.856983434336144,11.56458568572998 10.284645116181537,15.900014877319336 11.472624765212686,15.900014877319336 15.289811834948978,12.27624225616455 "/>
   <polygon fill="#dddddd" id="svg_9" points="16.98890072421591,15.061745643615723 16.104822229574438,15.900014877319336 17.500008071552656,15.900014877319336 "/>
   <polygon fill="#dddddd" id="svg_10" points="15.939053489418711,13.337179183959961 13.236172545343607,15.900014877319336 14.345877033448915,15.900014877319336 16.344260707302055,14.000810623168945 "/>
   <polygon fill="#dddddd" id="svg_11" points="10.491852255578124,4.399993896484375 8.115892957515825,8.298823356628418 11.127282372233594,5.443466663360596 "/>
  </g>
 </g>
</svg>
